PathFileType	4	(X/Y/Z)	 1.8Hz3min.trc
DataRate	CameraRate	NumFrames	NumMarkers	Units	OrigDataRate	OrigDataStartFrame	OrigNumFrames
200	200	9	35	m	200	251	1000
Frame#	Time	C7			LSH			RSH			MAN			RASI			LASI			HIPR			HIPL			RPSI			LPSI			COX			RTHI1			RTHI2			RTHI3			RTHI4			RSHA1			RSHA2			RSHA3			RSHA4			RHEEL			RMET5			RMET1			RTOE			LTHI1			LTHI2			LTHI3			LTHI4			LSHA1			LSHA2			LSHA3			LSHA4			LHEEL			LMET5			LMET1			LTOE			
		X1	Y1	Z1	X2	Y2	Z2	X3	Y3	Z3	X4	Y4	Z4	X5	Y5	Z5	X6	Y6	Z6	X7	Y7	Z7	X8	Y8	Z8	X9	Y9	Z9	X10	Y10	Z10	X11	Y11	Z11	X12	Y12	Z12	X13	Y13	Z13	X14	Y14	Z14	X15	Y15	Z15	X16	Y16	Z16	X17	Y17	Z17	X18	Y18	Z18	X19	Y19	Z19	X20	Y20	Z20	X21	Y21	Z21	X22	Y22	Z22	X23	Y23	Z23	X24	Y24	Z24	X25	Y25	Z25	X26	Y26	Z26	X27	Y27	Z27	X28	Y28	Z28	X29	Y29	Z29	X30	Y30	Z30	X31	Y31	Z31	X32	Y32	Z32	X33	Y33	Z33	X34	Y34	Z34	X35	Y35	Z35	
251	1.2550	-0.326146	1.322624	-0.540057	-0.265761	1.285739	-0.716439	-0.247862	1.282291	-0.364339	-0.207357	1.269154	-0.546511	-0.188813	0.869951	-0.457482	-0.182421	0.877220	-0.642858	-0.248174	0.925688	-0.416242	-0.231293	0.928588	-0.679771	-0.338205	0.907438	-0.490035	-0.332461	0.907684	-0.605611	-0.339378	0.916403	-0.548986	-0.279553	0.652647	-0.398927	-0.253738	0.599058	-0.391522	-0.197575	0.623954	-0.371789	-0.215956	0.682679	-0.375536	-0.296240	0.278107	-0.371826	-0.318251	0.244286	-0.374267	-0.271691	0.213021	-0.364603	-0.244937	0.246077	-0.364948	-0.412730	0.083934	-0.410878	-0.263591	0.029161	-0.342713	-0.230700	0.032036	-0.423558	-0.208789	0.026396	-0.412103	-0.240129	0.665331	-0.722681	-0.222357	0.606312	-0.723017	-0.160060	0.618780	-0.708359	-0.170454	0.677604	-0.706643	-0.323494	0.260190	-0.744685	-0.343879	0.221450	-0.743091	-0.298326	0.195666	-0.728723	-0.272835	0.227279	-0.728402	-0.454637	0.101332	-0.703385	-0.303712	0.028877	-0.757482	-0.281157	0.035108	-0.681423	-0.253573	0.026150	-0.689873	
252	1.2600	-0.325888	1.316784	-0.539954	-0.265307	1.279668	-0.716548	-0.247294	1.275968	-0.364105	-0.206871	1.262727	-0.546441	-0.189446	0.863695	-0.457056	-0.182683	0.870811	-0.643203	-0.249084	0.918936	-0.415841	-0.231861	0.921821	-0.680372	-0.339338	0.900671	-0.490115	-0.333476	0.900846	-0.606047	-0.340181	0.909822	-0.549189	-0.279633	0.646408	-0.399613	-0.253426	0.592974	-0.392429	-0.197644	0.618177	-0.372034	-0.216457	0.676781	-0.375458	-0.295623	0.274123	-0.373224	-0.317926	0.240462	-0.375778	-0.271695	0.208853	-0.365875	-0.244663	0.241660	-0.366161	-0.413823	0.080589	-0.412982	-0.264203	0.029108	-0.343096	-0.230543	0.031872	-0.423991	-0.208648	0.026343	-0.412244	-0.240066	0.658951	-0.722534	-0.222287	0.599929	-0.722674	-0.159952	0.612467	-0.708193	-0.170366	0.671310	-0.706681	-0.323760	0.255457	-0.743809	-0.344509	0.216908	-0.742144	-0.299144	0.190888	-0.727330	-0.273424	0.222245	-0.727082	-0.456621	0.097469	-0.702100	-0.304355	0.028662	-0.757466	-0.281543	0.034820	-0.681069	-0.253741	0.026110	-0.689878	
253	1.2650	-0.325620	1.311129	-0.539880	-0.264852	1.273815	-0.716668	-0.246819	1.269867	-0.363893	-0.206371	1.256557	-0.546374	-0.190100	0.857619	-0.456621	-0.182987	0.864578	-0.643512	-0.250060	0.912337	-0.415442	-0.232401	0.915211	-0.681002	-0.340411	0.894253	-0.490290	-0.334474	0.894400	-0.606560	-0.340978	0.903623	-0.549452	-0.279701	0.640530	-0.400367	-0.253119	0.587242	-0.393357	-0.197710	0.612748	-0.372353	-0.216930	0.671221	-0.375501	-0.294901	0.270494	-0.374608	-0.317500	0.237000	-0.377265	-0.271590	0.205035	-0.367123	-0.244268	0.237575	-0.367352	-0.414744	0.077442	-0.415008	-0.264786	0.029099	-0.343515	-0.230378	0.031734	-0.424388	-0.208516	0.026284	-0.412367	-0.239930	0.652955	-0.722327	-0.222217	0.593904	-0.722269	-0.159838	0.606436	-0.707920	-0.170203	0.665307	-0.706609	-0.324052	0.251085	-0.742805	-0.345137	0.212703	-0.741109	-0.299887	0.186459	-0.726024	-0.273982	0.217594	-0.725821	-0.458409	0.093805	-0.700777	-0.304967	0.028476	-0.757432	-0.281889	0.034570	-0.680742	-0.253903	0.026081	-0.689896	
254	1.2700	-0.325366	1.305716	-0.539837	-0.264391	1.268222	-0.716795	-0.246441	1.264028	-0.363703	-0.205888	1.250690	-0.546311	-0.190763	0.851805	-0.456215	-0.183331	0.858608	-0.643761	-0.251074	0.905983	-0.415071	-0.232903	0.908856	-0.681652	-0.341398	0.888300	-0.490557	-0.335413	0.888483	-0.607151	-0.341748	0.897902	-0.549769	-0.279735	0.635020	-0.401173	-0.252793	0.581888	-0.394284	-0.197748	0.607696	-0.372715	-0.217345	0.666026	-0.375673	-0.294100	0.267251	-0.375968	-0.316989	0.233942	-0.378712	-0.271414	0.201613	-0.368283	-0.243781	0.233864	-0.368468	-0.415513	0.074499	-0.416874	-0.265327	0.029124	-0.343929	-0.230228	0.031625	-0.424742	-0.208402	0.026220	-0.412466	-0.239732	0.647410	-0.722062	-0.222122	0.588324	-0.721812	-0.159704	0.600809	-0.707537	-0.169982	0.659707	-0.706423	-0.324300	0.247168	-0.741675	-0.345686	0.208938	-0.740000	-0.300535	0.182450	-0.724819	-0.274457	0.213375	-0.724632	-0.459977	0.090392	-0.699452	-0.305522	0.028327	-0.757372	-0.282183	0.034357	-0.680439	-0.254041	0.026058	-0.689916	
255	1.2750	-0.325107	1.300608	-0.539830	-0.263910	1.262930	-0.716919	-0.246154	1.258491	-0.363531	-0.205458	1.245161	-0.546245	-0.191415	0.846332	-0.455874	-0.183703	0.852995	-0.643931	-0.252114	0.899989	-0.414749	-0.233365	0.902855	-0.682303	-0.342265	0.882905	-0.490905	-0.336241	0.883138	-0.607734	-0.342474	0.892712	-0.550130	-0.279720	0.629904	-0.402019	-0.252445	0.576919	-0.395157	-0.197744	0.603029	-0.373091	-0.217686	0.661206	-0.375965	-0.293232	0.264391	-0.377261	-0.316411	0.231267	-0.380079	-0.271189	0.198576	-0.369327	-0.243242	0.230536	-0.369474	-0.416168	0.071810	-0.418525	-0.265810	0.029174	-0.344307	-0.230106	0.031541	-0.425046	-0.208309	0.026154	-0.412536	-0.239502	0.642336	-0.721750	-0.221974	0.583225	-0.721312	-0.159531	0.595673	-0.707053	-0.169748	0.654599	-0.706130	-0.324453	0.243728	-0.740418	-0.346110	0.205645	-0.738809	-0.301072	0.178874	-0.723704	-0.274810	0.209595	-0.723499	-0.461312	0.087274	-0.698154	-0.306004	0.028215	-0.757275	-0.282416	0.034173	-0.680154	-0.254144	0.026038	-0.689931	
256	1.2800	-0.324832	1.295847	-0.539853	-0.263408	1.257972	-0.717036	-0.245950	1.253292	-0.363374	-0.205079	1.240010	-0.546173	-0.192047	0.841285	-0.455621	-0.184084	0.847839	-0.644011	-0.253133	0.894485	-0.414494	-0.233787	0.897323	-0.682918	-0.342984	0.878105	-0.491331	-0.336945	0.878398	-0.608262	-0.343147	0.888060	-0.550506	-0.279647	0.625161	-0.402851	-0.252067	0.572330	-0.395954	-0.197676	0.598733	-0.373467	-0.217938	0.656757	-0.376335	-0.292327	0.261880	-0.378454	-0.315792	0.228943	-0.381325	-0.270933	0.195914	-0.370217	-0.242651	0.227573	-0.370367	-0.416720	0.069398	-0.419909	-0.266225	0.029242	-0.344630	-0.230020	0.031473	-0.425297	-0.208232	0.026099	-0.412582	-0.239261	0.637720	-0.721399	-0.221745	0.578609	-0.720770	-0.159305	0.591090	-0.706481	-0.169523	0.650028	-0.705746	-0.324468	0.240755	-0.739075	-0.346380	0.202811	-0.737571	-0.301483	0.175711	-0.722652	-0.275017	0.206246	-0.722404	-0.462418	0.084476	-0.696901	-0.306405	0.028145	-0.757140	-0.282586	0.034016	-0.679874	-0.254204	0.026018	-0.689932	
257	1.2850	-0.324526	1.291484	-0.539899	-0.262879	1.253379	-0.717143	-0.245811	1.248469	-0.363225	-0.204767	1.235244	-0.546091	-0.192636	0.836733	-0.455484	-0.184451	0.843219	-0.644002	-0.254099	0.889584	-0.414320	-0.234163	0.892384	-0.683460	-0.343603	0.873893	-0.491768	-0.337528	0.874269	-0.608729	-0.343760	0.883929	-0.550868	-0.279506	0.620788	-0.403626	-0.251647	0.568111	-0.396666	-0.197532	0.594797	-0.373834	-0.218094	0.652684	-0.376739	-0.291406	0.259675	-0.379506	-0.315138	0.226924	-0.382396	-0.270624	0.193587	-0.370960	-0.242032	0.224953	-0.371118	-0.417182	0.067299	-0.421000	-0.266562	0.029313	-0.344876	-0.229973	0.031414	-0.425503	-0.208175	0.026050	-0.412607	-0.239009	0.633537	-0.721027	-0.221417	0.574455	-0.720194	-0.159014	0.587062	-0.705836	-0.169314	0.645988	-0.705295	-0.324319	0.238200	-0.737698	-0.346481	0.200411	-0.736317	-0.301744	0.172940	-0.721637	-0.275074	0.203288	-0.721317	-0.463305	0.082032	-0.695704	-0.306735	0.028113	-0.756957	-0.282698	0.033879	-0.679593	-0.254224	0.025998	-0.689917	
258	1.2900	-0.324195	1.287546	-0.539954	-0.262322	1.249188	-0.717240	-0.245715	1.244051	-0.363082	-0.204507	1.230902	-0.546002	-0.193169	0.832714	-0.455457	-0.184787	0.839191	-0.643928	-0.254934	0.885373	-0.414226	-0.234479	0.888147	-0.683897	-0.344138	0.870218	-0.492181	-0.338014	0.870682	-0.609107	-0.344319	0.880287	-0.551192	-0.279304	0.616800	-0.404299	-0.251178	0.564274	-0.397287	-0.197299	0.591226	-0.374196	-0.218148	0.648979	-0.377140	-0.290486	0.257747	-0.380380	-0.314470	0.225135	-0.383285	-0.270277	0.191549	-0.371536	-0.241388	0.222660	-0.371736	-0.417581	0.065517	-0.421783	-0.266821	0.029382	-0.345043	-0.229955	0.031373	-0.425662	-0.208131	0.026012	-0.412617	-0.238727	0.629766	-0.720650	-0.220978	0.570737	-0.719597	-0.158641	0.583563	-0.705135	-0.169102	0.642456	-0.704795	-0.324002	0.236017	-0.736343	-0.346409	0.198382	-0.735089	-0.301860	0.170549	-0.720618	-0.274974	0.200691	-0.720222	-0.464000	0.079935	-0.694570	-0.307008	0.028113	-0.756734	-0.282764	0.033759	-0.679313	-0.254215	0.025977	-0.689885	
259	1.2950	-0.323851	1.284056	-0.540007	-0.261753	1.245422	-0.717327	-0.245645	1.240073	-0.362942	-0.204271	1.227020	-0.545907	-0.193642	0.829244	-0.455515	-0.185087	0.835777	-0.643822	-0.255625	0.881877	-0.414209	-0.234746	0.884669	-0.684187	-0.344613	0.867030	-0.492536	-0.338426	0.867563	-0.609373	-0.344823	0.877101	-0.551455	-0.279039	0.613224	-0.404844	-0.250654	0.560842	-0.397812	-0.196966	0.588030	-0.374556	-0.218099	0.645664	-0.377500	-0.289563	0.256066	-0.381025	-0.313786	0.223556	-0.383952	-0.269863	0.189747	-0.371993	-0.240717	0.220650	-0.372248	-0.417918	0.064057	-0.422282	-0.267005	0.029445	-0.345136	-0.229960	0.031342	-0.425782	-0.208098	0.025983	-0.412619	-0.238386	0.626409	-0.720295	-0.220427	0.567445	-0.719005	-0.158181	0.580543	-0.704392	-0.168858	0.639402	-0.704266	-0.323545	0.234155	-0.735058	-0.346195	0.196672	-0.733919	-0.301847	0.168484	-0.719598	-0.274747	0.198433	-0.719124	-0.464532	0.078184	-0.693532	-0.307235	0.028130	-0.756486	-0.282791	0.033653	-0.679041	-0.254185	0.025956	-0.689841	
